<svg xmlns="http://www.w3.org/2000/svg" xmlns:xlink="http://www.w3.org/1999/xlink" width="500" zoomAndPan="magnify" viewBox="0 0 375 374.999991" height="500" preserveAspectRatio="xMidYMid meet" version="1.0"><defs><clipPath id="62d49f9254"><path d="M 183.0625 133.816406 L 278.042969 133.816406 L 278.042969 283.816406 L 183.0625 283.816406 Z M 183.0625 133.816406 " clip-rule="nonzero"/></clipPath><clipPath id="245c1c3c45"><path d="M 96.6875 91.183594 L 191.9375 91.183594 L 191.9375 241.183594 L 96.6875 241.183594 Z M 96.6875 91.183594 " clip-rule="nonzero"/></clipPath><clipPath id="f70f95ccb6"><path d="M 162 126 L 230.363281 126 L 230.363281 260 L 162 260 Z M 162 126 " clip-rule="nonzero"/></clipPath><clipPath id="b7cff161d2"><path d="M 153.863281 112.5 L 229 112.5 L 229 262.5 L 153.863281 262.5 Z M 153.863281 112.5 " clip-rule="nonzero"/></clipPath></defs><g clip-path="url(#62d49f9254)"><path fill="#6fe5f1" d="M 242.105469 238.1875 C 235.183594 242.804688 226.609375 242.203125 226.609375 242.203125 C 226.609375 242.203125 246.660156 231.085938 252.714844 205.9375 C 250.738281 208.695312 238.390625 214.808594 238.390625 214.808594 C 262.605469 190.171875 254.933594 136.285156 254.453125 133.886719 C 254.453125 133.886719 270.277344 161.699219 267.222656 186.1875 C 271.207031 183.578125 278.371094 175.1875 278.3125 175.007812 C 278.492188 181.960938 271.148438 211.960938 260.539062 221.523438 C 265.691406 221.042969 275.164062 212.890625 275.433594 212.773438 C 244.714844 260.757812 182.910156 283.746094 182.792969 283.746094 C 182.792969 283.746094 233.863281 255.632812 242.105469 238.1875 Z M 242.105469 238.1875 " fill-opacity="1" fill-rule="nonzero"/></g><g clip-path="url(#245c1c3c45)"><path fill="#6fe5f1" d="M 132.894531 136.8125 C 139.816406 132.195312 148.390625 132.796875 148.390625 132.796875 C 148.390625 132.796875 128.339844 143.914062 122.285156 169.0625 C 124.261719 166.304688 136.609375 160.191406 136.609375 160.191406 C 112.394531 184.828125 120.066406 238.714844 120.546875 241.113281 C 120.546875 241.113281 104.71875 213.300781 107.777344 188.8125 C 103.792969 191.421875 96.628906 199.8125 96.6875 199.992188 C 96.507812 193.039062 103.851562 163.039062 114.460938 153.476562 C 109.304688 153.957031 99.835938 162.109375 99.566406 162.226562 C 130.285156 114.242188 192.085938 91.253906 192.207031 91.253906 C 192.207031 91.253906 141.136719 119.367188 132.894531 136.8125 Z M 132.894531 136.8125 " fill-opacity="1" fill-rule="nonzero"/></g><g clip-path="url(#f70f95ccb6)"><path fill="#f5da80" d="M 204.167969 177.488281 L 216.175781 135.683594 L 218.941406 126.0625 L 213.117188 134.203125 L 165.25 201.109375 L 162.789062 204.550781 L 166.953125 203.8125 L 185.871094 200.449219 L 168.769531 249.03125 L 165.09375 259.480469 L 171.773438 250.644531 L 227.902344 176.40625 L 230.539062 172.921875 L 226.234375 173.667969 L 204.167969 177.488281 " fill-opacity="1" fill-rule="nonzero"/></g><g clip-path="url(#b7cff161d2)"><path fill="#e0b31f" d="M 182.539062 192.949219 L 164.089844 245.363281 L 221.484375 169.445312 L 196.492188 173.773438 L 209.535156 128.375 L 160.539062 196.855469 Z M 154.921875 262.425781 L 178.03125 196.773438 L 153.859375 201.070312 L 217.171875 112.574219 L 200.671875 170.027344 L 228.417969 165.222656 L 154.921875 262.425781 " fill-opacity="1" fill-rule="nonzero"/></g></svg>